<svg class="cvi" xmlns="http://www.w3.org/2000/svg" viewBox="0 0 880 420" width="880" height="420" role="img" aria-label="ROE trung vi theo nhom P/B">
<style>.cvi text{font-family:Inter,"Segoe UI",Roboto,Arial,sans-serif;fill:var(--cv-tx,#15261a)}.cvi .t{font-size:17.5px;font-weight:650}.cvi .s{font-size:12.5px;fill:var(--cv-mu,#4b6551)}.cvi .v{font-size:12.5px;font-weight:650}.cvi .c{font-size:12.5px}.cvi .ax{font-size:11.5px;fill:var(--cv-mu,#4b6551)}.cvi .gl{stroke:var(--cv-gr,#dceed4);stroke-width:1}.cvi .bl{stroke:var(--cv-bd,#c8e2bd);stroke-width:1}</style>
<rect x="0.5" y="0.5" width="879" height="419" rx="14" fill="var(--cv-bg,#f6fbf3)" stroke="var(--cv-bd,#c8e2bd)"/>
<text class="t" x="36" y="40">Thị trường trả giá cho vốn chủ theo mức nó sinh lời</text>
<text class="s" x="36" y="62">ROE bình quân 5 quý gần nhất, số trung vị của từng nhóm P/B. 601 cổ phiếu vốn hóa từ 500 tỷ đồng, ngày 27/08/2026.</text>

<line class="gl" x1="110" y1="110" x2="836" y2="110"/><text class="ax" x="100" y="114" text-anchor="end">25%</text>
<line class="gl" x1="110" y1="154" x2="836" y2="154"/><text class="ax" x="100" y="158" text-anchor="end">20%</text>
<line class="gl" x1="110" y1="198" x2="836" y2="198"/><text class="ax" x="100" y="202" text-anchor="end">15%</text>
<line class="gl" x1="110" y1="242" x2="836" y2="242"/><text class="ax" x="100" y="246" text-anchor="end">10%</text>
<line class="gl" x1="110" y1="286" x2="836" y2="286"/><text class="ax" x="100" y="290" text-anchor="end">5%</text>
<line class="bl" x1="110" y1="330" x2="836" y2="330"/><text class="ax" x="100" y="334" text-anchor="end">0</text>

<rect x="155" y="280.7" width="90" height="49.3" rx="2" fill="var(--cv-a1,#2e7d43)"/>
<text class="v" x="200" y="273" text-anchor="middle">5,6%</text>
<text class="c" x="200" y="354" text-anchor="middle">dưới 0,8</text>
<text class="ax" x="200" y="372" text-anchor="middle">128 mã</text>

<rect x="285" y="237.6" width="90" height="92.4" rx="2" fill="var(--cv-a1,#2e7d43)"/>
<text class="v" x="330" y="230" text-anchor="middle">10,5%</text>
<text class="c" x="330" y="354" text-anchor="middle">0,8 – 1,2</text>
<text class="ax" x="330" y="372" text-anchor="middle">148 mã</text>

<rect x="415" y="206.8" width="90" height="123.2" rx="2" fill="var(--cv-a1,#2e7d43)"/>
<text class="v" x="460" y="199" text-anchor="middle">14,0%</text>
<text class="c" x="460" y="354" text-anchor="middle">1,2 – 2</text>
<text class="ax" x="460" y="372" text-anchor="middle">161 mã</text>

<rect x="545" y="179.5" width="90" height="150.5" rx="2" fill="var(--cv-a1,#2e7d43)"/>
<text class="v" x="590" y="172" text-anchor="middle">17,1%</text>
<text class="c" x="590" y="354" text-anchor="middle">2 – 3</text>
<text class="ax" x="590" y="372" text-anchor="middle">86 mã</text>

<rect x="675" y="133.8" width="90" height="196.2" rx="2" fill="var(--cv-a1,#2e7d43)"/>
<text class="v" x="720" y="126" text-anchor="middle">22,3%</text>
<text class="c" x="720" y="354" text-anchor="middle">trên 3</text>
<text class="ax" x="720" y="372" text-anchor="middle">78 mã</text>

<text class="s" x="36" y="404">Trục ngang: P/B tại ngày 27/08/2026. Nguồn: API VNDirect.</text>
</svg>
