<svg class="cvi" xmlns="http://www.w3.org/2000/svg" viewBox="0 0 880 560" width="880" height="560" role="img" aria-label="Bien lai thuan tho cua muoi tam ngan hang, nam 2024 so voi nam 2026">
<style>.cvi text{font-family:Inter,"Segoe UI",Roboto,Arial,sans-serif;fill:var(--cv-tx,#15261a)}.cvi .t{font-size:17.5px;font-weight:650}.cvi .s{font-size:12.5px;fill:var(--cv-mu,#4b6551)}.cvi .v{font-size:12.5px;font-weight:650}.cvi .c{font-size:12.5px}.cvi .ax{font-size:11.5px;fill:var(--cv-mu,#4b6551)}.cvi .gl{stroke:var(--cv-gr,#dceed4);stroke-width:1}.cvi .bl{stroke:var(--cv-bd,#c8e2bd);stroke-width:1}.cvi .ln{stroke:var(--cv-mu,#4b6551);stroke-width:1.4;fill:none}.cvi .dl{stroke:var(--cv-n1,#a9bfb0);stroke-width:2}</style>
<rect x="0.5" y="0.5" width="879" height="559" rx="14" fill="var(--cv-bg,#f6fbf3)" stroke="var(--cv-bd,#c8e2bd)"/>
<text class="t" x="36" y="40">Biên lãi thô, sáu tháng đầu năm: 2024 so với 2026 (%/năm)</text>
<text class="s" x="36" y="62">Mười sáu trên mười tám ngân hàng có biên thấp hơn 2024. Không ngân hàng nào cao hơn.</text>
<circle cx="596" cy="86" r="5" fill="var(--cv-bg,#f6fbf3)" stroke="var(--cv-a2,#9ecbaa)" stroke-width="2"/><text class="ax" x="608" y="90">6T/2024</text>
<circle cx="700" cy="86" r="5" fill="var(--cv-neg,#c0562f)"/><text class="ax" x="712" y="90">6T/2026</text>
<line class="gl" x1="160" y1="118" x2="160" y2="522"/><text class="ax" x="160" y="112" text-anchor="middle">2,0</text>
<line class="gl" x1="310" y1="118" x2="310" y2="522"/><text class="ax" x="310" y="112" text-anchor="middle">3,0</text>
<line class="gl" x1="460" y1="118" x2="460" y2="522"/><text class="ax" x="460" y="112" text-anchor="middle">4,0</text>
<line class="gl" x1="610" y1="118" x2="610" y2="522"/><text class="ax" x="610" y="112" text-anchor="middle">5,0</text>
<line class="gl" x1="760" y1="118" x2="760" y2="522"/><text class="ax" x="760" y="112" text-anchor="middle">6,0</text>
<text class="v" x="118" y="132" text-anchor="end">VPB</text><line class="dl" x1="619" y1="128" x2="706" y2="128"/><circle cx="706" cy="128" r="5" fill="var(--cv-bg,#f6fbf3)" stroke="var(--cv-a2,#9ecbaa)" stroke-width="2"/><circle cx="619" cy="128" r="5" fill="var(--cv-neg,#c0562f)"/><text class="ax" x="852" y="132" text-anchor="end">5,64 → 5,06</text>
<text class="v" x="118" y="155" text-anchor="end">MBB</text><line class="dl" x1="430" y1="151" x2="467.5" y2="151"/><circle cx="467.5" cy="151" r="5" fill="var(--cv-bg,#f6fbf3)" stroke="var(--cv-a2,#9ecbaa)" stroke-width="2"/><circle cx="430" cy="151" r="5" fill="var(--cv-neg,#c0562f)"/><text class="ax" x="852" y="155" text-anchor="end">4,05 → 3,80</text>
<text class="v" x="118" y="178" text-anchor="end">HDB</text><line class="dl" x1="413.5" y1="174" x2="587.5" y2="174"/><circle cx="587.5" cy="174" r="5" fill="var(--cv-bg,#f6fbf3)" stroke="var(--cv-a2,#9ecbaa)" stroke-width="2"/><circle cx="413.5" cy="174" r="5" fill="var(--cv-neg,#c0562f)"/><text class="ax" x="852" y="178" text-anchor="end">4,85 → 3,69</text>
<text class="v" x="118" y="201" text-anchor="end">TCB</text><line class="dl" x1="353.5" y1="197" x2="473.5" y2="197"/><circle cx="473.5" cy="197" r="5" fill="var(--cv-bg,#f6fbf3)" stroke="var(--cv-a2,#9ecbaa)" stroke-width="2"/><circle cx="353.5" cy="197" r="5" fill="var(--cv-neg,#c0562f)"/><text class="ax" x="852" y="201" text-anchor="end">4,09 → 3,29</text>
<text class="v" x="118" y="224" text-anchor="end">VIB</text><line class="dl" x1="304" y1="220" x2="479.5" y2="220"/><circle cx="479.5" cy="220" r="5" fill="var(--cv-bg,#f6fbf3)" stroke="var(--cv-a2,#9ecbaa)" stroke-width="2"/><circle cx="304" cy="220" r="5" fill="var(--cv-neg,#c0562f)"/><text class="ax" x="852" y="224" text-anchor="end">4,13 → 2,96</text>
<text class="v" x="118" y="247" text-anchor="end">MSB</text><line class="dl" x1="298" y1="243" x2="362.5" y2="243"/><circle cx="362.5" cy="243" r="5" fill="var(--cv-bg,#f6fbf3)" stroke="var(--cv-a2,#9ecbaa)" stroke-width="2"/><circle cx="298" cy="243" r="5" fill="var(--cv-neg,#c0562f)"/><text class="ax" x="852" y="247" text-anchor="end">3,35 → 2,92</text>
<text class="v" x="118" y="270" text-anchor="end">OCB</text><line class="dl" x1="296.5" y1="266" x2="347.5" y2="266"/><circle cx="347.5" cy="266" r="5" fill="var(--cv-bg,#f6fbf3)" stroke="var(--cv-a2,#9ecbaa)" stroke-width="2"/><circle cx="296.5" cy="266" r="5" fill="var(--cv-neg,#c0562f)"/><text class="ax" x="852" y="270" text-anchor="end">3,25 → 2,91</text>
<text class="v" x="118" y="293" text-anchor="end">VCB</text><line class="dl" x1="293.5" y1="289" x2="308.5" y2="289"/><circle cx="308.5" cy="289" r="5" fill="var(--cv-bg,#f6fbf3)" stroke="var(--cv-a2,#9ecbaa)" stroke-width="2"/><circle cx="293.5" cy="289" r="5" fill="var(--cv-neg,#c0562f)"/><text class="ax" x="852" y="293" text-anchor="end">2,99 → 2,89</text>
<text class="v" x="118" y="316" text-anchor="end">ACB</text><line class="dl" x1="283" y1="312" x2="418" y2="312"/><circle cx="418" cy="312" r="5" fill="var(--cv-bg,#f6fbf3)" stroke="var(--cv-a2,#9ecbaa)" stroke-width="2"/><circle cx="283" cy="312" r="5" fill="var(--cv-neg,#c0562f)"/><text class="ax" x="852" y="316" text-anchor="end">3,72 → 2,82</text>
<text class="v" x="118" y="339" text-anchor="end">CTG</text><line class="dl" x1="280" y1="335" x2="296.5" y2="335"/><circle cx="296.5" cy="335" r="5" fill="var(--cv-bg,#f6fbf3)" stroke="var(--cv-a2,#9ecbaa)" stroke-width="2"/><circle cx="280" cy="335" r="5" fill="var(--cv-neg,#c0562f)"/><text class="ax" x="852" y="339" text-anchor="end">2,91 → 2,80</text>
<text class="v" x="118" y="362" text-anchor="end">STB</text><line class="dl" x1="268" y1="358" x2="380.5" y2="358"/><circle cx="380.5" cy="358" r="5" fill="var(--cv-bg,#f6fbf3)" stroke="var(--cv-a2,#9ecbaa)" stroke-width="2"/><circle cx="268" cy="358" r="5" fill="var(--cv-neg,#c0562f)"/><text class="ax" x="852" y="362" text-anchor="end">3,47 → 2,72</text>
<text class="v" x="118" y="385" text-anchor="end">TPB</text><line class="dl" x1="263.5" y1="381" x2="416.5" y2="381"/><circle cx="416.5" cy="381" r="5" fill="var(--cv-bg,#f6fbf3)" stroke="var(--cv-a2,#9ecbaa)" stroke-width="2"/><circle cx="263.5" cy="381" r="5" fill="var(--cv-neg,#c0562f)"/><text class="ax" x="852" y="385" text-anchor="end">3,71 → 2,69</text>
<text class="v" x="118" y="408" text-anchor="end">SHB</text><line class="dl" x1="254.5" y1="404" x2="305.5" y2="404"/><circle cx="305.5" cy="404" r="5" fill="var(--cv-bg,#f6fbf3)" stroke="var(--cv-a2,#9ecbaa)" stroke-width="2"/><circle cx="254.5" cy="404" r="5" fill="var(--cv-neg,#c0562f)"/><text class="ax" x="852" y="408" text-anchor="end">2,97 → 2,63</text>
<text class="v" x="118" y="431" text-anchor="end">LPB</text><line class="dl" x1="241" y1="427" x2="376" y2="427"/><circle cx="376" cy="427" r="5" fill="var(--cv-bg,#f6fbf3)" stroke="var(--cv-a2,#9ecbaa)" stroke-width="2"/><circle cx="241" cy="427" r="5" fill="var(--cv-neg,#c0562f)"/><text class="ax" x="852" y="431" text-anchor="end">3,44 → 2,54</text>
<text class="v" x="118" y="454" text-anchor="end">SSB</text><line class="dl" x1="200.5" y1="450" x2="380.5" y2="450"/><circle cx="380.5" cy="450" r="5" fill="var(--cv-bg,#f6fbf3)" stroke="var(--cv-a2,#9ecbaa)" stroke-width="2"/><circle cx="200.5" cy="450" r="5" fill="var(--cv-neg,#c0562f)"/><text class="ax" x="852" y="454" text-anchor="end">3,47 → 2,27</text>
<text class="v" x="118" y="477" text-anchor="end">EIB</text><line class="dl" x1="169" y1="473" x2="277" y2="473"/><circle cx="277" cy="473" r="5" fill="var(--cv-bg,#f6fbf3)" stroke="var(--cv-a2,#9ecbaa)" stroke-width="2"/><circle cx="169" cy="473" r="5" fill="var(--cv-neg,#c0562f)"/><text class="ax" x="852" y="477" text-anchor="end">2,78 → 2,06</text>
<text class="v" x="118" y="500" text-anchor="end">BID</text><line class="dl" x1="157" y1="496" x2="212.5" y2="496"/><circle cx="212.5" cy="496" r="5" fill="var(--cv-bg,#f6fbf3)" stroke="var(--cv-a2,#9ecbaa)" stroke-width="2"/><circle cx="157" cy="496" r="5" fill="var(--cv-neg,#c0562f)"/><text class="ax" x="852" y="500" text-anchor="end">2,35 → 1,98</text>
<text class="v" x="118" y="523" text-anchor="end">NAB</text><line class="dl" x1="155.5" y1="519" x2="397" y2="519"/><circle cx="397" cy="519" r="5" fill="var(--cv-bg,#f6fbf3)" stroke="var(--cv-a2,#9ecbaa)" stroke-width="2"/><circle cx="155.5" cy="519" r="5" fill="var(--cv-neg,#c0562f)"/><text class="ax" x="852" y="523" text-anchor="end">3,58 → 1,97</text>
<text class="s" x="36" y="548">Biên thô: thu nhập lãi thuần nhân đôi chia tổng tài sản bình quân — thấp hơn NIM chuẩn khoảng 0,2–0,4 điểm.</text>
</svg>
